<svg xmlns="http://www.w3.org/2000/svg" xmlns:xlink="http://www.w3.org/1999/xlink" id="Layer_1" data-name="Layer 1" viewBox="0 0 846.31 155.45" width="846.31"  height="155.45" >
  <defs>
    <linearGradient id="linear-gradient" x1="-912.59" y1="-761.02" x2="-978.19" y2="-826.62" gradientTransform="scale(-1 1) rotate(-65.2 1.318 -761.497)" gradientUnits="userSpaceOnUse">
      <stop offset="0" stop-color="#30306f"/>
      <stop offset=".4" stop-color="#30306f"/>
      <stop offset=".52" stop-color="#30306f" stop-opacity=".92"/>
      <stop offset=".73" stop-color="#30306f" stop-opacity=".69"/>
      <stop offset=".99" stop-color="#30306f" stop-opacity=".32"/>
      <stop offset="1" stop-color="#30306f" stop-opacity=".3"/>
    </linearGradient>
    <linearGradient id="linear-gradient-2" x1="-967.79" y1="-813.09" x2="-903.83" y2="-749.13" xlink:href="#linear-gradient"/>
    <style>
      .cls-1{fill:#30306f}
    </style>
  </defs>
  <path class="cls-1" d="M517.06 150.48a16.49 16.49 0 0012.15 5 16.85 16.85 0 0012.26-5 16.34 16.34 0 005.07-12.15A17.31 17.31 0 00529.21 121a16.35 16.35 0 00-12.15 5.07 16.85 16.85 0 00-5 12.26 16.47 16.47 0 005 12.15"/>
  <path d="M461.23 13.1a68.05 68.05 0 01-24.15 102.53 42.42 42.42 0 00-34.81-77.28l-.34.14-.83.37c-.33.14-.65.27-1 .42s-.73.36-1.09.54a68.08 68.08 0 00-24.16 102.53A77.72 77.72 0 01461.23 13.1z" fill="url(#linear-gradient)"/>
  <path d="M379.61 95.65a42.41 42.41 0 0054.22 21.45l.35-.14.83-.36 1-.43c.37-.17.73-.36 1.1-.54A68.1 68.1 0 00461.23 13.1a77.72 77.72 0 01-86.35 129.25A68 68 0 01399 39.82a42.41 42.41 0 00-19.39 55.83z" fill="url(#linear-gradient-2)"/>
  <path class="cls-1" d="M28.31 102.16c4.92 0 7.65-1.25 9.43-3.25a9.9 9.9 0 000-13.42c-1.78-2-4.51-3.25-9.43-3.25H14.15v19.92zm-14.16-32.5h10c4.41 0 6.4-1 7.87-2.62a7.61 7.61 0 000-10.48c-1.47-1.57-3.46-2.62-7.87-2.62h-10zM25 41.36c8.28 0 12.9 2 16.46 5.13a19.6 19.6 0 016.82 14.79 19.17 19.17 0 01-4.72 12.26c6.5 3.25 11 10.59 11 18.77a22.17 22.17 0 01-6.71 15.83c-4.09 4.09-9.75 6.6-19.19 6.6H0V41.36zM98.92 82.77a10.14 10.14 0 00-10.07-8.91c-5.66 0-10.27 4.3-10.9 8.91zm12.68 23.9c-4.92 5.87-13 9.12-20.86 9.12-15.2 0-26.63-10.48-26.63-26.42 0-14.15 9.65-26.52 24.74-26.52 14.05 0 24 11.85 24 26a22.35 22.35 0 01-.31 3.88H77.32c.73 7.13 6.5 12 13.73 12a18 18 0 0012.79-5.87zM139.75 85.46v29.28h-13.63V63.9h13.11v7.82s4.37-7.82 21.1-7.82h1v11.53h-2.83c-20.16 0-18.72 10-18.72 10M201.55 75.43V63.9h-16.78V49.74h-13.63v43.51c0 7.24 1.16 11.75 3.78 15.2 3.46 4.62 9.43 7.34 17.61 7.34a33.48 33.48 0 008.49-1.05l-2.09-11.53a33.22 33.22 0 01-5.56.53c-3.36 0-5.56-.95-6.92-2.52-1.15-1.36-1.68-3.25-1.68-6.4V75.43zM245.42 82.77a10.14 10.14 0 00-10.06-8.91c-5.66 0-10.28 4.3-10.91 8.91zm12.69 23.9c-4.93 5.87-13 9.12-20.87 9.12-15.2 0-26.63-10.48-26.63-26.42 0-14.15 9.65-26.52 24.75-26.52 14 0 24 11.85 24 26a22.31 22.31 0 01-.32 3.88h-35.22c.74 7.13 6.51 12 13.74 12a18 18 0 0012.79-5.87zM272.63 49.74h13.63v65h-13.63zM579.09 95.14c4.2 4.61 10.59 8.07 17.3 8.07 6.29 0 10.7-3.88 10.7-9.22 0-9.44-13.63-10.59-23.49-16.36-5.76-3.35-10.38-8.39-10.38-16.67 0-13.1 12.06-20.65 24.22-20.65a34 34 0 0121.28 6.92l-7.34 10.48a19.65 19.65 0 00-12.68-4.82c-5.35 0-11.32 2.3-11.32 8 0 11.84 33.86 8.17 33.86 32.92 0 13-11.64 22-24.85 22-9.85 0-19-4.09-26.52-11zM666 75.43V63.9h-16.76V49.74h-13.62v43.51c0 7.24 1.15 11.75 3.77 15.2 3.46 4.62 9.44 7.34 17.61 7.34a33.48 33.48 0 008.49-1.05l-2.09-11.53a33.22 33.22 0 01-5.56.53c-3.35 0-5.56-.95-6.92-2.52-1.15-1.36-1.68-3.25-1.68-6.4V75.43zM711.05 82.77A10.14 10.14 0 00701 73.86c-5.66 0-10.27 4.3-10.9 8.91zm12.68 23.9c-4.93 5.87-13 9.12-20.86 9.12-15.2 0-26.63-10.48-26.63-26.42 0-14.15 9.64-26.52 24.74-26.52 14 0 24 11.85 24 26a22.35 22.35 0 01-.31 3.88h-35.22c.73 7.13 6.5 12 13.73 12A18 18 0 00716 98.91zM771.64 82.77a10.14 10.14 0 00-10.06-8.91c-5.66 0-10.28 4.3-10.91 8.91zm12.69 23.9c-4.93 5.87-13 9.12-20.87 9.12-15.2 0-26.63-10.48-26.63-26.42 0-14.15 9.65-26.52 24.75-26.52 14 0 24 11.85 24 26a22.31 22.31 0 01-.32 3.88H750c.74 7.13 6.5 12 13.74 12a18 18 0 0012.79-5.87zM822 62.85c7 0 14.89 3.14 19.08 8.18 3.36 4 5.24 9.12 5.24 17.82v25.9h-13.64V87.8c0-5-1.15-7.65-3-9.54a11.75 11.75 0 00-15.3 0c-1.89 1.89-3 4.51-3 9.54v27h-13.71V88.85c0-8.7 1.88-13.84 5.24-17.82C807.1 66 815 62.85 822 62.85"/>
</svg>