<svg width="184" height="32" viewBox="0 0 184 32" fill="none" xmlns="http://www.w3.org/2000/svg">
<g clip-path="url(#clip0_3479_392)">
<path d="M39.1484 27.5001V4.5H43.0556V27.5001H39.1484ZM63.2566 4.5H66.8768V27.5001H62.6101L52.9778 10.3459V27.5001H49.3576V4.5H53.6243L63.2566 21.6223V4.5ZM84.2421 11.3692V9.51682C84.2421 8.55874 83.6901 7.92 82.7486 7.92H77.7174C76.7436 7.92 76.1918 8.55874 76.1918 9.51682V11.7843C76.1918 12.9022 76.8406 13.1576 77.7174 13.3493L83.755 14.6906C86.3845 15.2655 88.4293 16.5749 88.4293 19.2896V23.0581C88.4293 25.8047 86.5789 27.625 83.7877 27.625H76.9062C74.1143 27.625 72.2965 25.8047 72.2965 23.0581V20.3435H76.0944V22.4833C76.0944 23.4413 76.6462 24.0801 77.6198 24.0801H83.0086C83.9822 24.0801 84.5341 23.4413 84.5341 22.4833V19.9283C84.5341 18.8105 83.9822 18.555 83.0086 18.3314L76.971 17.022C74.3415 16.4152 72.2965 15.1377 72.2965 12.4231V8.94202C72.2965 6.19541 74.1468 4.375 76.9382 4.375H83.4302C86.2221 4.375 88.0725 6.19541 88.0725 8.94202V11.3692H84.2421ZM93.9749 27.5001V4.5H97.8821V27.5001H93.9749ZM116.196 11.6247V9.51682C116.196 8.55874 115.647 7.98388 114.68 7.98388H108.907C107.972 7.98388 107.424 8.55874 107.424 9.51682V22.5152C107.424 23.4413 107.972 24.0162 108.907 24.0162H114.68C115.647 24.0162 116.196 23.4413 116.196 22.4833V18.4592H111.39V14.978H120.065V23.0581C120.065 25.8047 118.227 27.625 115.453 27.625H108.133C105.36 27.625 103.554 25.8047 103.554 23.0581V8.94202C103.554 6.19541 105.36 4.375 108.133 4.375H115.453C118.227 4.375 120.065 6.19541 120.065 8.94202V11.6247H116.196ZM125.611 27.5001V4.5H129.507V13.9556H138.729V4.5H142.626V27.5001H138.729V17.5334H129.507V27.5001H125.611ZM163.548 8.04585H157.172V27.5001H153.287V8.04585H146.911V4.5H163.548V8.04585ZM178.897 11.3692V9.51682C178.897 8.55874 178.345 7.92 177.403 7.92H172.372C171.398 7.92 170.846 8.55874 170.846 9.51682V11.7843C170.846 12.9022 171.496 13.1576 172.372 13.3493L178.41 14.6906C181.039 15.2655 183.084 16.5749 183.084 19.2896V23.0581C183.084 25.8047 181.234 27.625 178.442 27.625H171.561C168.769 27.625 166.951 25.8047 166.951 23.0581V20.3435H170.749V22.4833C170.749 23.4413 171.301 24.0801 172.274 24.0801H177.663C178.637 24.0801 179.189 23.4413 179.189 22.4833V19.9283C179.189 18.8105 178.637 18.555 177.663 18.3314L171.626 17.022C168.996 16.4152 166.951 15.1377 166.951 12.4231V8.94202C166.951 6.19541 168.802 4.375 171.593 4.375H178.086C180.877 4.375 182.727 6.19541 182.727 8.94202V11.3692H178.897Z" fill="black"/>
<path d="M16.0213 32C10.4876 32.0128 5.34341 29.154 2.43212 24.448C2.24012 24.128 2.04812 23.808 1.87746 23.4666L3.88277 22.4C4.0321 22.6773 4.20277 22.9546 4.37343 23.232C6.8702 27.2631 11.2797 29.7101 16.0213 29.6959C18.587 29.6911 21.0999 28.9668 23.2746 27.6053C25.2766 26.3415 26.9217 24.5862 28.0532 22.5066L30.0585 23.5946C27.2637 28.7479 21.8835 31.9695 16.0213 32ZM31.6372 19.3706L29.3972 18.88C29.609 17.9057 29.7163 16.9117 29.7172 15.9146C29.7157 13.3351 28.9915 10.8075 27.6266 8.61867C25.5041 5.1916 21.9737 2.87965 17.984 2.304L18.3252 0.0213333C26.189 1.20413 32.0038 7.96244 31.9998 15.9146C31.9964 17.076 31.8748 18.2339 31.6372 19.3706ZM0.341475 19.2213C0.109778 18.1417 -0.00466239 17.0402 0.000145395 15.936C-0.00217838 13.2543 0.665106 10.6144 1.94146 8.25603C3.25525 5.81969 5.18174 3.76817 7.53073 2.304C9.43674 1.08899 11.5841 0.302836 13.824 0L14.144 2.28266C12.2168 2.53605 10.3679 3.20576 8.72539 4.24533C3.83802 7.31404 1.38478 13.1064 2.58145 18.752L0.341475 19.2213Z" fill="black"/>
<path d="M15.9869 27.0361C15.3797 27.0296 14.7737 26.9797 14.1735 26.8867L14.8562 22.7268C15.6264 22.8584 16.4139 22.8512 17.1815 22.7054L17.9069 26.8655C17.2728 26.9761 16.6306 27.0331 15.9869 27.0361ZM7.53896 23.0681C6.72457 22.1042 6.08229 21.0074 5.64032 19.8254L9.56563 18.3534C9.83851 19.0844 10.2354 19.7628 10.7389 20.3588L7.53896 23.0681ZM24.5201 22.9828L21.2775 20.3162C21.7715 19.7093 22.1608 19.0243 22.4295 18.2894L26.3761 19.7188V19.7614C25.9435 20.9322 25.3159 22.0213 24.5201 22.9828ZM9.54427 13.5748L5.59766 12.1455C6.03259 10.9628 6.65967 9.85995 7.45364 8.88147L10.6963 11.5481C10.2023 12.155 9.81299 12.8399 9.54427 13.5748ZM22.4081 13.5108C22.1319 12.775 21.7353 12.0901 21.2348 11.4841L24.4348 8.77483C25.2447 9.74171 25.8866 10.8379 26.3335 12.0175L22.4081 13.5108ZM14.7922 9.15883L14.0455 4.9988C14.687 4.88904 15.3362 4.83196 15.9869 4.82812C16.5941 4.83547 17.2 4.88537 17.8002 4.97746L17.0962 9.13747C16.7301 9.07027 16.359 9.03459 15.9869 9.03083C15.5852 9.03011 15.1846 9.07299 14.7922 9.15883Z" fill="black"/>
<path d="M16.011 18.6002C17.4495 18.6002 18.6159 17.434 18.6159 15.9954C18.6159 14.5569 17.4495 13.3906 16.011 13.3906C14.5724 13.3906 13.4062 14.5569 13.4062 15.9954C13.4062 17.434 14.5724 18.6002 16.011 18.6002Z" fill="#5B53FF"/>
<path fill-rule="evenodd" clip-rule="evenodd" d="M16.0031 20.7953C18.654 20.7953 20.803 18.6463 20.803 15.9953C20.803 13.3443 18.654 11.1953 16.0031 11.1953C13.3521 11.1953 11.2031 13.3443 11.2031 15.9953C11.2031 18.6463 13.3521 20.7953 16.0031 20.7953ZM16.0027 20.2975C18.3794 20.2975 20.3061 18.3708 20.3061 15.994C20.3061 13.6173 18.3794 11.6906 16.0027 11.6906C13.626 11.6906 11.6993 13.6173 11.6993 15.994C11.6993 18.3708 13.626 20.2975 16.0027 20.2975Z" fill="black"/>
</g>
<defs>
<clipPath id="clip0_3479_392">
<rect width="184" height="32" fill="white"/>
</clipPath>
</defs>
</svg>
